<?xml version="1.0" standalone="no"?>
<svg xmlns="http://www.w3.org/2000/svg" viewBox="0 0 101.27 116.936" width="101.27" height="116.936"><polygon fill="none" stroke="#17d23d" stroke-width="3" points="99.77,29.984 99.77,86.952 50.635,115.436 1.5,86.952 1.5,29.984 50.635,1.5"></polygon><g fill="#333bb6" color="#333bb6" transform="translate(28.634999999999998 22.5) scale(2.75)"><svg width="16.0" height="16.0" x="0.0" y="0.0" viewBox="0 0 16 16"><g><polygon points="16,4 8,0 0,4 8,8  "></polygon><polygon points="8,14 2,11 0,12 8,16 16,12 14,11  "></polygon><polygon points="8,10 2,7 0,8 8,12 16,8 14,7  "></polygon></g></svg></g><path fill="#333bb6" fill-rule="nonzero" d="M10.50 0Q13.27 0 15.48 0.84Q17.70 1.68 19.00 3.32Q20.30 4.96 20.30 7.31L20.30 7.31L14.39 7.31Q14.39 6.10 13.33 5.36Q12.26 4.62 10.75 4.62L10.75 4.62Q8.57 4.62 7.45 5.78Q6.33 6.94 6.33 9.07L6.33 9.07L6.33 10.86Q6.33 12.99 7.45 14.15Q8.57 15.32 10.75 15.32L10.75 15.32Q12.26 15.32 13.33 14.60Q14.39 13.89 14.39 12.77L14.39 12.77L10.02 12.77L10.02 8.85L20.30 8.85L20.30 19.60L17.11 19.60L16.49 17.70Q13.86 19.94 9.60 19.94L9.60 19.94Q4.82 19.94 2.41 17.43Q0 14.92 0 9.97L0 9.97Q0 5.07 2.73 2.53Q5.46 0 10.50 0L10.50 0Z" transform="translate(40.485, 74.5)"></path></svg>