<?xml version="1.0" standalone="no"?>
<svg xmlns="http://www.w3.org/2000/svg" viewBox="0 0 238.08 29" width="238.08" height="29"><g fill="#17d23d" color="#17d23d" transform="translate(0, 0) scale(1.8125)"><svg width="16.0" height="16.0" x="0.0" y="0.0" viewBox="0 0 16 16"><g><polygon points="16,4 8,0 0,4 8,8  "></polygon><polygon points="8,14 2,11 0,12 8,16 16,12 14,11  "></polygon><polygon points="8,10 2,7 0,8 8,12 16,8 14,7  "></polygon></g></svg></g><line x1="41" y1="1" x2="41" y2="28" stroke="#333bb6" stroke-linecap="round"></line><path fill="#333bb6" fill-rule="nonzero" d="M9 0.60Q11.38 0.60 13.27 1.32Q15.17 2.04 16.28 3.44Q17.40 4.85 17.40 6.86L17.40 6.86L12.34 6.86Q12.34 5.83 11.42 5.20Q10.51 4.56 9.22 4.56L9.22 4.56Q7.34 4.56 6.38 5.56Q5.42 6.55 5.42 8.38L5.42 8.38L5.42 9.91Q5.42 11.74 6.38 12.73Q7.34 13.73 9.22 13.73L9.22 13.73Q10.51 13.73 11.42 13.12Q12.34 12.50 12.34 11.54L12.34 11.54L8.59 11.54L8.59 8.18L17.40 8.18L17.40 17.40L14.66 17.40L14.14 15.77Q11.88 17.69 8.23 17.69L8.23 17.69Q4.13 17.69 2.06 15.54Q0 13.39 0 9.14L0 9.14Q0 4.94 2.34 2.77Q4.68 0.60 9 0.60L9 0.60ZM26.90 4.44Q30.38 4.44 32.22 6.07Q34.06 7.70 34.06 11.06L34.06 11.06L34.06 11.88L24.55 11.88Q24.55 13.25 25.16 13.94Q25.78 14.64 27.10 14.64L27.10 14.64Q28.30 14.64 28.86 14.14Q29.42 13.63 29.42 12.79L29.42 12.79L34.06 12.79Q34.06 15.10 32.30 16.39Q30.55 17.69 27.19 17.69L27.19 17.69Q23.66 17.69 21.72 16.04Q19.78 14.40 19.78 11.06L19.78 11.06Q19.78 7.80 21.67 6.12Q23.57 4.44 26.90 4.44L26.90 4.44ZM27.10 7.49Q24.84 7.49 24.58 9.62L24.58 9.62L29.23 9.62Q29.23 8.64 28.67 8.06Q28.10 7.49 27.10 7.49L27.10 7.49ZM42.91 4.44Q46.25 4.44 48.16 6.13Q50.06 7.82 50.06 11.06L50.06 11.06Q50.06 14.30 48.16 16.00Q46.25 17.69 42.91 17.69L42.91 17.69Q39.58 17.69 37.68 16.01Q35.78 14.33 35.78 11.06L35.78 11.06Q35.78 7.80 37.68 6.12Q39.58 4.44 42.91 4.44L42.91 4.44ZM42.91 7.68Q40.56 7.68 40.56 10.39L40.56 10.39L40.56 11.76Q40.56 14.45 42.91 14.45L42.91 14.45Q45.29 14.45 45.29 11.76L45.29 11.76L45.29 10.39Q45.29 7.68 42.91 7.68L42.91 7.68ZM69.19 4.44Q71.35 4.44 72.43 5.68Q73.51 6.91 73.51 9.19L73.51 9.19L73.51 17.40L68.74 17.40L68.74 9.77Q68.74 8.95 68.34 8.46Q67.94 7.97 67.22 7.97L67.22 7.97Q66.38 7.97 65.86 8.54Q65.33 9.12 65.33 9.96L65.33 9.96L65.33 17.40L60.55 17.40L60.55 9.77Q60.55 8.95 60.16 8.46Q59.76 7.97 59.04 7.97L59.04 7.97Q58.20 7.97 57.67 8.54Q57.14 9.12 57.14 9.96L57.14 9.96L57.14 17.40L52.37 17.40L52.37 4.73L56.28 4.73L56.59 6.62Q57.31 5.62 58.50 5.03Q59.69 4.44 61.01 4.44L61.01 4.44Q63.86 4.44 64.85 6.62L64.85 6.62Q65.59 5.62 66.76 5.03Q67.92 4.44 69.19 4.44L69.19 4.44ZM82.63 4.44Q85.54 4.44 87.36 5.41Q89.18 6.38 89.18 8.57L89.18 8.57L89.18 13.51Q89.18 13.92 89.38 14.18Q89.57 14.45 89.95 14.45L89.95 14.45L90.82 14.45L90.82 17.21Q90.74 17.26 90.44 17.36Q90.14 17.47 89.59 17.58Q89.04 17.69 88.32 17.69L88.32 17.69Q86.93 17.69 86.03 17.27Q85.13 16.85 84.79 16.10L84.79 16.10Q83.88 16.82 82.75 17.26Q81.62 17.69 80.11 17.69L80.11 17.69Q75.65 17.69 75.65 14.14L75.65 14.14Q75.65 12.29 76.64 11.32Q77.64 10.34 79.51 9.98Q81.38 9.62 84.41 9.62L84.41 9.62L84.41 9.00Q84.41 8.26 83.89 7.87Q83.38 7.49 82.56 7.49L82.56 7.49Q81.82 7.49 81.28 7.75Q80.74 8.02 80.74 8.59L80.74 8.59L80.74 8.69L76.03 8.69Q76.01 8.57 76.01 8.35L76.01 8.35Q76.01 6.55 77.72 5.50Q79.44 4.44 82.63 4.44L82.63 4.44ZM84.41 11.88Q82.37 11.88 81.40 12.32Q80.42 12.77 80.42 13.51L80.42 13.51Q80.42 14.71 82.06 14.71L82.06 14.71Q82.99 14.71 83.70 14.21Q84.41 13.70 84.41 12.96L84.41 12.96L84.41 11.88ZM97.73 4.73L100.42 4.73L100.42 7.97L97.73 7.97L97.73 12.79Q97.73 13.66 98.02 14.05Q98.30 14.45 99.07 14.45L99.07 14.45L100.42 14.45L100.42 17.26Q99.84 17.45 98.93 17.57Q98.02 17.69 97.34 17.69L97.34 17.69Q95.23 17.69 94.09 16.92Q92.95 16.15 92.95 14.30L92.95 14.30L92.95 7.97L91.18 7.97L91.18 4.73L93.14 4.73L94.18 0.89L97.73 0.89L97.73 4.73ZM107.57 3.24L102.79 3.24L102.79 0L107.57 0L107.57 3.24ZM107.57 17.40L102.79 17.40L102.79 4.73L107.57 4.73L107.57 17.40ZM117.17 4.44Q120.29 4.44 122.22 5.77Q124.15 7.10 124.15 9.84L124.15 9.84L119.52 9.84Q119.52 7.68 117.17 7.68L117.17 7.68Q114.82 7.68 114.82 10.39L114.82 10.39L114.82 11.76Q114.82 14.45 117.26 14.45L117.26 14.45Q119.71 14.45 119.71 12.24L119.71 12.24L124.15 12.24Q124.15 15.00 122.22 16.34Q120.29 17.69 117.17 17.69L117.17 17.69Q113.83 17.69 111.94 16.01Q110.04 14.33 110.04 11.06L110.04 11.06Q110.04 7.80 111.94 6.12Q113.83 4.44 117.17 4.44L117.17 4.44ZM132.89 4.44Q135.79 4.44 137.62 5.41Q139.44 6.38 139.44 8.57L139.44 8.57L139.44 13.51Q139.44 13.92 139.63 14.18Q139.82 14.45 140.21 14.45L140.21 14.45L141.07 14.45L141.07 17.21Q141 17.26 140.70 17.36Q140.40 17.47 139.85 17.58Q139.30 17.69 138.58 17.69L138.58 17.69Q137.18 17.69 136.28 17.27Q135.38 16.85 135.05 16.10L135.05 16.10Q134.14 16.82 133.01 17.26Q131.88 17.69 130.37 17.69L130.37 17.69Q125.90 17.69 125.90 14.14L125.90 14.14Q125.90 12.29 126.90 11.32Q127.90 10.34 129.77 9.98Q131.64 9.62 134.66 9.62L134.66 9.62L134.66 9.00Q134.66 8.26 134.15 7.87Q133.63 7.49 132.82 7.49L132.82 7.49Q132.07 7.49 131.53 7.75Q130.99 8.02 130.99 8.59L130.99 8.59L130.99 8.69L126.29 8.69Q126.26 8.57 126.26 8.35L126.26 8.35Q126.26 6.55 127.98 5.50Q129.70 4.44 132.89 4.44L132.89 4.44ZM134.66 11.88Q132.62 11.88 131.65 12.32Q130.68 12.77 130.68 13.51L130.68 13.51Q130.68 14.71 132.31 14.71L132.31 14.71Q133.25 14.71 133.96 14.21Q134.66 13.70 134.66 12.96L134.66 12.96L134.66 11.88ZM159.41 17.40L154.78 17.40L147.84 9.38L147.84 17.40L142.97 17.40L142.97 0.89L147.60 0.89L154.54 9.02L154.54 0.89L159.41 0.89L159.41 17.40ZM169.18 4.44Q172.66 4.44 174.49 6.07Q176.33 7.70 176.33 11.06L176.33 11.06L176.33 11.88L166.82 11.88Q166.82 13.25 167.44 13.94Q168.05 14.64 169.37 14.64L169.37 14.64Q170.57 14.64 171.13 14.14Q171.70 13.63 171.70 12.79L171.70 12.79L176.33 12.79Q176.33 15.10 174.58 16.39Q172.82 17.69 169.46 17.69L169.46 17.69Q165.94 17.69 163.99 16.04Q162.05 14.40 162.05 11.06L162.05 11.06Q162.05 7.80 163.94 6.12Q165.84 4.44 169.18 4.44L169.18 4.44ZM169.37 7.49Q167.11 7.49 166.85 9.62L166.85 9.62L171.50 9.62Q171.50 8.64 170.94 8.06Q170.38 7.49 169.37 7.49L169.37 7.49ZM184.39 4.73L187.08 4.73L187.08 7.97L184.39 7.97L184.39 12.79Q184.39 13.66 184.68 14.05Q184.97 14.45 185.74 14.45L185.74 14.45L187.08 14.45L187.08 17.26Q186.50 17.45 185.59 17.57Q184.68 17.69 184.01 17.69L184.01 17.69Q181.90 17.69 180.76 16.92Q179.62 16.15 179.62 14.30L179.62 14.30L179.62 7.97L177.84 7.97L177.84 4.73L179.81 4.73L180.84 0.89L184.39 0.89L184.39 4.73Z" transform="translate(51, 5.656)"></path></svg>